<?xml version="1.0" encoding="UTF-8"?><svg id="Capa_1" xmlns="http://www.w3.org/2000/svg" viewBox="0 0 398.7 112.07"><defs><style>.cls-1,.cls-2{fill:#221f20;}.cls-3,.cls-4,.cls-5,.cls-6{fill:#223d71;}.cls-4,.cls-6,.cls-2{fill-rule:evenodd;}.cls-5,.cls-6{opacity:.8;}</style></defs><path class="cls-4" d="m114.98,2.93v23.79c0,12.16,5.63,17.56,15.29,17.56s15.97-5.63,15.97-17.45V2.93h-8.64v24.41c0,6.82-2.5,10-7.05,10s-6.93-3.35-6.93-10V2.93"/><path class="cls-4" d="m151.88,43.65h8.64v-16.03c0-.8.06-1.59.29-2.16.62-1.59,2.04-3.24,4.43-3.24,3.12,0,4.38,2.44,4.38,6.02v15.4h8.64v-16.42c0-8.19-4.26-12-9.95-12-4.66,0-7.45,2.67-8.58,4.49h-.17l-.4-3.86h-7.5c.11,2.5.23,5.4.23,8.87"/><path class="cls-4" d="m187.98,2.93c-2.79,0-4.61,1.87-4.61,4.32s1.76,4.32,4.49,4.32c2.9,0,4.66-1.93,4.66-4.32-.06-2.44-1.76-4.32-4.55-4.32"/><rect class="cls-3" x="183.6" y="15.86" width="8.64" height="27.79"/><path class="cls-4" d="m194.64,15.86l10.12,27.79h8.64l10.35-27.79h-9.1l-3.58,12.9c-.63,2.39-1.08,4.49-1.53,6.76h-.17c-.46-2.22-.91-4.38-1.6-6.76l-3.75-12.9"/><path class="cls-4" d="m249.84,32.51c.11-.62.28-1.93.28-3.41,0-6.87-3.41-13.87-12.39-13.87-9.66,0-14.04,7.79-14.04,14.84,0,8.7,5.4,14.15,14.84,14.15,3.75,0,7.22-.57,10.06-1.76l-1.13-5.85c-2.33.79-4.72,1.19-7.67,1.19-4.04,0-7.62-1.71-7.84-5.29m-.06-5.91c.23-2.27,1.71-5.63,5.34-5.63,3.98,0,4.89,3.52,4.89,5.63h-10.23Z"/><path class="cls-4" d="m253.71,43.65h8.64v-14.1c0-.68.06-1.37.17-1.93.57-2.67,2.73-4.38,5.91-4.38.96,0,1.65.12,2.33.23v-8.13c-.62-.11-1.02-.17-1.82-.17-2.73,0-6.08,1.71-7.5,5.8h-.23l-.34-5.11h-7.39c.17,2.38.23,5.06.23,9.15"/><path class="cls-4" d="m272.14,42.29c2.1,1.14,5.34,1.99,8.98,1.99,7.96,0,11.99-3.81,11.99-9.04-.06-4.03-2.21-6.76-7.5-8.58-3.41-1.19-4.49-1.88-4.49-3.24s1.19-2.22,3.29-2.22c2.33,0,4.78.91,6.03,1.59l1.48-5.97c-1.71-.85-4.55-1.65-7.79-1.65-6.88,0-11.31,3.92-11.31,9.15-.06,3.3,2.16,6.42,7.95,8.35,3.18,1.08,4.03,1.76,4.03,3.24s-1.08,2.27-3.69,2.27-5.86-1.08-7.45-2.05"/><path class="cls-4" d="m301.19,2.93c-2.79,0-4.6,1.87-4.6,4.32s1.76,4.32,4.49,4.32c2.9,0,4.66-1.93,4.66-4.32-.06-2.44-1.76-4.32-4.55-4.32"/><rect class="cls-3" x="296.81" y="15.86" width="8.64" height="27.79"/><path class="cls-4" d="m329.1,3.24v15.06h-.11c-1.25-1.88-3.86-3.13-7.33-3.13-6.65,0-12.51,5.46-12.45,14.84,0,8.64,5.29,14.27,11.88,14.27,3.58,0,6.99-1.59,8.7-4.66h.17l.34,4.04h7.67c-.11-1.88-.23-5.17-.23-8.3V3.24m-8.64,28.02c0,.68-.06,1.37-.17,1.99-.51,2.44-2.56,4.15-5.06,4.15-3.58,0-5.91-2.96-5.91-7.67,0-4.38,1.99-7.9,5.97-7.9,2.67,0,4.55,1.93,5.06,4.21.11.51.11,1.14.11,1.59v3.64h0Z"/><path class="cls-4" d="m366.23,27.23c0-6.6-2.9-12.05-12.16-12.05-5.06,0-8.87,1.42-10.8,2.5l1.6,5.57c1.82-1.14,4.83-2.1,7.67-2.1,4.26,0,5.06,2.1,5.06,3.64v.34c-9.83,0-16.31,3.41-16.31,10.63,0,4.43,3.36,8.52,8.98,8.52,3.3,0,6.13-1.19,7.96-3.41h.17l.51,2.78h7.79c-.34-1.54-.46-4.09-.46-6.71m-8.35-3.41c0,.51-.06,1.02-.17,1.48-.57,1.76-2.39,3.18-4.49,3.18-1.93,0-3.41-1.08-3.41-3.3,0-3.29,3.52-4.38,8.07-4.38v3.01h0Z"/><path class="cls-4" d="m389.83,3.24v15.06h-.11c-1.25-1.88-3.86-3.13-7.33-3.13-6.65,0-12.5,5.46-12.45,14.84,0,8.64,5.29,14.27,11.88,14.27,3.58,0,6.99-1.59,8.7-4.66h.17l.34,4.04h7.67c-.12-1.88-.23-5.17-.23-8.3V3.24m-8.64,28.02c0,.68-.05,1.37-.17,1.99-.51,2.44-2.56,4.15-5.06,4.15-3.58,0-5.91-2.96-5.91-7.67,0-4.38,1.99-7.9,5.97-7.9,2.67,0,4.54,1.93,5.05,4.21.11.51.11,1.14.11,1.59v3.64h.01Z"/><path class="cls-2" d="m157.68,76.87c0,.36-.04.8-.18,1.25-.62,1.83-2.45,3.61-5.31,3.61-1.96,0-3.66-1.16-3.66-3.75,0-4.19,4.86-4.95,9.14-4.86v3.74m3.79-5.98c0-4.28-1.6-8.79-8.21-8.79-2.72,0-5.35.76-7.14,1.87l.89,2.63c1.51-1.03,3.61-1.61,5.66-1.61,4.41-.05,4.91,3.21,4.91,4.95v.44c-8.34-.04-12.98,2.81-12.98,8.03,0,3.12,2.23,6.2,6.6,6.2,3.08,0,5.4-1.52,6.6-3.21h.13l.31,2.72h3.52c-.22-1.47-.31-3.3-.31-5.18v-8.07l.02.02Z"/><path class="cls-1" d="m169.05,84.14h3.92v-11.51c0-.62.05-1.29.14-1.83.54-2.94,2.5-4.99,5.26-4.99.54,0,.93,0,1.34.09v-3.7c-.36-.04-.67-.09-1.07-.09-2.63,0-5.04,1.83-6.02,4.73h-.14l-.18-4.28h-3.43c.14,2.01.18,4.19.18,6.73v14.86"/><path class="cls-2" d="m196.02,76.87c0,.36-.04.8-.18,1.25-.62,1.83-2.45,3.61-5.31,3.61-1.96,0-3.66-1.16-3.66-3.75,0-4.19,4.86-4.95,9.14-4.86v3.74m3.79-5.98c0-4.28-1.6-8.79-8.21-8.79-2.72,0-5.35.76-7.14,1.87l.89,2.63c1.51-1.03,3.61-1.61,5.66-1.61,4.42-.05,4.91,3.21,4.91,4.95v.44c-8.34-.04-12.98,2.81-12.98,8.03,0,3.12,2.23,6.2,6.6,6.2,3.08,0,5.4-1.52,6.6-3.21h.14l.31,2.72h3.53c-.23-1.47-.32-3.3-.32-5.18v-8.07.02Z"/><path class="cls-2" d="m221.93,74.95c0,.67-.09,1.43-.31,2.09-.8,2.5-2.99,4.02-5.44,4.02-4.19,0-6.37-3.53-6.37-7.77,0-4.99,2.67-8.16,6.42-8.16,2.9,0,4.77,1.88,5.49,4.2.17.49.22,1.07.22,1.74v3.88m3.93-6.51c0-2.59.04-4.37.17-5.89h-3.48l-.13,3.26h-.08c-.98-1.79-2.99-3.71-6.74-3.71-5,0-9.77,4.11-9.77,11.41,0,5.98,3.83,10.53,9.19,10.53,3.34,0,5.7-1.61,6.86-3.61h.1v2.36c0,5.48-2.95,7.58-6.96,7.58-2.68,0-4.91-.81-6.34-1.74l-.98,3.04c1.74,1.16,4.59,1.78,7.18,1.78,2.72,0,5.76-.67,7.9-2.59,2.05-1.91,3.08-4.9,3.08-9.9v-12.53h0Z"/><path class="cls-2" d="m242.62,65.05c4.64,0,6.47,4.59,6.47,8.25,0,4.86-2.81,8.39-6.56,8.39s-6.51-3.56-6.51-8.29c0-4.06,2.01-8.34,6.6-8.34m.1-2.95c-5.94,0-10.71,4.24-10.71,11.41s4.55,11.11,10.35,11.11c5.17,0,10.75-3.48,10.75-11.46,0-6.56-4.2-11.06-10.39-11.06"/><path class="cls-1" d="m256.53,84.14h17.49v-3.12h-12.58v-.09c.98-1.07,1.83-2.19,2.76-3.39l8.4-12.54v-2.45h-16.41v3.12h11.68v.08c-.98,1.16-.63,2.19-1.61,3.39l-9.72,12.72v2.27"/><path class="cls-2" d="m290.69,76.87c0,.36-.05.8-.18,1.25-.62,1.83-2.45,3.61-5.31,3.61-1.97,0-3.66-1.16-3.66-3.75,0-4.19,4.86-4.95,9.15-4.86v3.74m3.79-5.98c0-4.28-1.6-8.79-8.2-8.79-2.72,0-5.36.76-7.14,1.87l.89,2.63c1.52-1.03,3.62-1.61,5.67-1.61,4.42-.05,4.9,3.21,4.9,4.95v.44c-8.34-.04-12.97,2.81-12.97,8.03,0,3.12,2.23,6.2,6.6,6.2,3.07,0,5.39-1.52,6.59-3.21h.14l.31,2.72h3.52c-.22-1.47-.31-3.3-.31-5.18v-8.07.02Z"/><polyline class="cls-1" points="116.21 84.14 140.73 84.14 140.73 80.88 121.34 80.88 121.34 80.75 140.58 56.44 140.58 54.08 116.21 54.08 116.21 57.33 135.49 57.33 135.49 57.46 116.21 81.87"/><polyline class="cls-6" points="19.44 112.06 21.54 112.06 21.54 102.81 19.76 102.81 17.3 103.95 17.65 105.57 19.41 104.73 19.44 104.73"/><path class="cls-6" d="m56.18,112.06v-2.21h1.1v-1.62h-1.1v-5.42h-2.66l-3.49,5.63v1.4h4.1v2.21m-2.1-3.83v-.02l1.24-2.02c.31-.58.57-1.12.87-1.72h.04c-.03.6-.05,1.17-.05,1.72v2.04h-2.1Z"/><path class="cls-3" d="m42.13,42.83c.49,0,.89-.4.89-.89s-.4-.89-.89-.89-.89.4-.89.89.4.89.89.89m.91-.06c0,.49.4.89.89.89s.89-.4.89-.89-.4-.89-.89-.89-.89.4-.89.89m-2.65-2.74c-.49,0-.89.4-.89.89s.4.89.89.89.89-.4.89-.89-.4-.89-.89-.89m4.61,3.44c0,.32.26.59.59.59s.58-.26.58-.59-.26-.58-.58-.58-.59.26-.59.58m3.58-24.66v-4.44c0-1.38-1.11-2.49-2.49-2.49s-2.49,1.11-2.49,2.49v4.44c0,.3.22.45.45.45h4.08c.23,0,.45-.15.45-.45m-11.61,21.41c0,.68.55,1.24,1.24,1.24s1.24-.56,1.24-1.24-.55-1.24-1.24-1.24-1.24.55-1.24,1.24m-2.71.81c-.49,0-.89.4-.89.89s.4.89.89.89.89-.4.89-.89-.4-.89-.89-.89m1.76.77c.49,0,.89-.4.89-.89s-.4-.89-.89-.89-.89.4-.89.89.4.89.89.89m-2.67-10.23v8.66l4.89-2.31,5.14,2.51v-8.86c0-2.78-2.24-5.01-5.01-5.01s-5.01,2.23-5.01,5.01m-.01-17.21c0-1.38-1.11-2.49-2.49-2.49s-2.49,1.11-2.49,2.49v4.44c0,.3.22.45.45.45h4.08c.22,0,.45-.15.45-.45v-4.44h0Zm38.29-7.31l4.16-4.15H1.7l2.63,4.15h67.31Zm-5.89-5.19l3.48-1.86H7.22l2.2,1.86h56.33,0Zm-33.31,40c-.49,0-.89.4-.89.89s.4.89.89.89.89-.4.89-.89-.4-.89-.89-.89m18.99-10.29v8.94c0,.6.45.9.9.9h8.22c.45,0,.9-.3.9-.9v-8.94c0-2.78-2.24-5.01-5.02-5.01s-5.01,2.23-5.01,5.01m-11.06-12.32c.22,0,.45-.15.45-.45v-4.44c0-1.38-1.11-2.49-2.49-2.49s-2.49,1.11-2.49,2.49v4.44c0,.3.22.45.45.45h4.08,0Zm-10.04,24.21c0,.32.26.59.59.59s.59-.26.59-.59-.26-.58-.59-.58-.59.26-.59.58m21,5.73l-13.09-7.07-13.3,6.97,26.39.11h0Zm-14.46-4.98h2.68c.15,0,.29.1.29.29v2.1c0,.91-.73,1.64-1.63,1.64s-1.64-.73-1.64-1.64v-2.1c0-.2.15-.29.29-.29M0,93.29h76.54v-4.64H0v4.64Zm24.89-38.93c0-.73-.59-1.32-1.32-1.32s-1.32.59-1.32,1.32.59,1.32,1.32,1.32,1.32-.59,1.32-1.32m-9.98-22.78v8.94c0,.6.45.9.9.9h8.22c.45,0,.9-.3.9-.9v-8.94c0-2.78-2.24-5.01-5.01-5.01s-5.01,2.23-5.01,5.01m8.31-19.69c-1.38,0-2.49,1.11-2.49,2.49v4.44c0,.3.22.45.45.45h4.08c.22,0,.45-.15.45-.45v-4.44c0-1.38-1.11-2.49-2.49-2.49m-5.63,42.48c0-.73-.59-1.32-1.32-1.32s-1.32.59-1.32,1.32.59,1.32,1.32,1.32,1.32-.59,1.32-1.32m-1.85-42.48c-1.38,0-2.49,1.11-2.49,2.49v4.44c0,.3.22.45.45.45h4.08c.23,0,.45-.15.45-.45v-4.44c0-1.38-1.11-2.49-2.49-2.49m-.82,65.77c0,.6.45.9.9.9h8.22c.45,0,.9-.3.9-.9v-15.18c0-2.78-2.24-5.01-5.01-5.01s-5.01,2.23-5.01,5.01v15.18h0Zm-9.87,9.42h66.47v-3.71H5.05v3.71ZM63.5,19.26c.22,0,.45-.15.45-.45v-4.44c0-1.38-1.11-2.49-2.49-2.49s-2.49,1.11-2.49,2.49v4.44c0,.3.22.45.45.45h4.08,0ZM9.97,81.93h56.64v-2.43H9.97v2.43Zm42.65-26.24c.73,0,1.32-.59,1.32-1.32s-.59-1.32-1.32-1.32-1.32.59-1.32,1.32.59,1.32,1.32,1.32m8.62-1.32c0-.73-.59-1.32-1.32-1.32s-1.32.59-1.32,1.32.59,1.32,1.32,1.32,1.32-.59,1.32-1.32m-8.95,24.08h8.22c.45,0,.9-.3.9-.9v-15.59c0-2.78-2.24-5.01-5.02-5.01s-5.01,2.24-5.01,5.01v15.59c0,.6.45.9.9.9m1.28-66.56c-1.38,0-2.49,1.11-2.49,2.49v4.44c0,.3.22.45.45.45h4.08c.22,0,.45-.15.45-.45v-4.44c0-1.38-1.11-2.49-2.49-2.49m-21.31,66.67h11.54c.64,0,1.27-.43,1.27-1.27v-16.11c0-3.9-3.14-7.03-7.04-7.03s-7.03,3.13-7.03,7.03v16.11c0,.84.63,1.27,1.26,1.27m-.13-25.11c.73,0,1.32-.59,1.32-1.32s-.59-1.31-1.32-1.31-1.32.59-1.32,1.31.59,1.32,1.32,1.32m12.76-1.32c0-.73-.59-1.31-1.32-1.31s-1.32.59-1.32,1.31.59,1.32,1.32,1.32,1.32-.59,1.32-1.32"/><path class="cls-6" d="m33.46,112.06v-2.21h1.1v-1.62h-1.1v-5.42h-2.66l-3.49,5.63v1.4h4.1v2.21m-2.1-3.83v-.02l1.24-2.02c.31-.58.57-1.12.87-1.72h.04c-.03.6-.05,1.17-.05,1.72v2.04h-2.1Z"/><path class="cls-5" d="m46.62,102.8v1.37l-3.82,7.9h-2.29l3.82-7.45v-.03h-4.25v-1.78h6.54Z"/></svg>